<mxfile host="app.diagrams.net" modified="2024-04-24T09:51:40.085Z" agent="Mozilla/5.0 (Macintosh; Intel Mac OS X 10_15_7) AppleWebKit/537.36 (KHTML, like Gecko) Chrome/124.0.0.0 Safari/537.36" etag="q4HgKamc7OVFwpBUKE7I" version="23.1.1" type="device">
  <diagram name="ページ1" id="sJ913Ts8wOJUHBlzl6C4">
    <mxGraphModel dx="1685" dy="873" grid="1" gridSize="10" guides="1" tooltips="1" connect="1" arrows="1" fold="1" page="1" pageScale="1" pageWidth="827" pageHeight="1169" math="0" shadow="0">
      <root>
        <mxCell id="0" />
        <mxCell id="1" parent="0" />
        <mxCell id="YGWuQ-swnYf5FkJz1V4--1" value="&lt;font style=&quot;font-size: 16px;&quot;&gt;Server (run astro-notion-blog)&lt;/font&gt;" style="swimlane;whiteSpace=wrap;html=1;labelBackgroundColor=none;" vertex="1" parent="1">
          <mxGeometry x="240" y="240" width="680" height="520" as="geometry" />
        </mxCell>
        <mxCell id="YGWuQ-swnYf5FkJz1V4--3" value="&lt;font style=&quot;font-size: 16px;&quot;&gt;astro&lt;/font&gt;" style="swimlane;whiteSpace=wrap;html=1;labelBackgroundColor=none;" vertex="1" parent="YGWuQ-swnYf5FkJz1V4--1">
          <mxGeometry x="40" y="80" width="600" height="400" as="geometry" />
        </mxCell>
        <mxCell id="YGWuQ-swnYf5FkJz1V4--7" value="&lt;font style=&quot;font-size: 16px;&quot;&gt;Frontend&lt;/font&gt;" style="swimlane;whiteSpace=wrap;html=1;dashed=1;labelBackgroundColor=none;" vertex="1" parent="YGWuQ-swnYf5FkJz1V4--3">
          <mxGeometry x="40" y="115" width="200" height="165" as="geometry" />
        </mxCell>
        <mxCell id="YGWuQ-swnYf5FkJz1V4--24" value="&lt;font style=&quot;font-size: 14px;&quot;&gt;&lt;b&gt;components&lt;/b&gt;&lt;/font&gt;" style="shape=note;size=20;whiteSpace=wrap;html=1;" vertex="1" parent="YGWuQ-swnYf5FkJz1V4--7">
          <mxGeometry x="40" y="45" width="120" height="80" as="geometry" />
        </mxCell>
        <mxCell id="YGWuQ-swnYf5FkJz1V4--8" value="&lt;font style=&quot;font-size: 16px;&quot;&gt;api endpoint&lt;/font&gt;" style="swimlane;whiteSpace=wrap;html=1;dashed=1;labelBackgroundColor=none;" vertex="1" parent="YGWuQ-swnYf5FkJz1V4--3">
          <mxGeometry x="360" y="240" width="160" height="120" as="geometry" />
        </mxCell>
        <mxCell id="YGWuQ-swnYf5FkJz1V4--18" value="&lt;b&gt;&lt;font style=&quot;font-size: 14px;&quot;&gt;feed&lt;/font&gt;&lt;/b&gt;" style="text;html=1;align=center;verticalAlign=middle;resizable=0;points=[];autosize=1;strokeColor=none;fillColor=none;labelBackgroundColor=none;" vertex="1" parent="YGWuQ-swnYf5FkJz1V4--8">
          <mxGeometry x="40" y="38" width="50" height="30" as="geometry" />
        </mxCell>
        <mxCell id="YGWuQ-swnYf5FkJz1V4--20" style="edgeStyle=orthogonalEdgeStyle;rounded=0;orthogonalLoop=1;jettySize=auto;html=1;exitX=1;exitY=0.5;exitDx=0;exitDy=0;fontSize=12;strokeWidth=2;" edge="1" parent="YGWuQ-swnYf5FkJz1V4--3" source="YGWuQ-swnYf5FkJz1V4--10">
          <mxGeometry relative="1" as="geometry">
            <mxPoint x="720" y="120" as="targetPoint" />
          </mxGeometry>
        </mxCell>
        <mxCell id="YGWuQ-swnYf5FkJz1V4--10" value="&lt;font style=&quot;font-size: 16px;&quot;&gt;cache&lt;/font&gt;" style="swimlane;whiteSpace=wrap;html=1;dashed=1;labelBackgroundColor=none;" vertex="1" parent="YGWuQ-swnYf5FkJz1V4--3">
          <mxGeometry x="360" y="40" width="200" height="160" as="geometry" />
        </mxCell>
        <mxCell id="YGWuQ-swnYf5FkJz1V4--14" value="&lt;b&gt;&lt;font style=&quot;font-size: 14px;&quot;&gt;postCache&lt;/font&gt;&lt;/b&gt;" style="text;html=1;align=center;verticalAlign=middle;resizable=0;points=[];autosize=1;strokeColor=none;fillColor=none;labelBackgroundColor=none;" vertex="1" parent="YGWuQ-swnYf5FkJz1V4--10">
          <mxGeometry x="30" y="40" width="100" height="30" as="geometry" />
        </mxCell>
        <mxCell id="YGWuQ-swnYf5FkJz1V4--17" value="&lt;b&gt;&lt;font style=&quot;font-size: 14px;&quot;&gt;dbCache&lt;/font&gt;&lt;/b&gt;" style="text;html=1;align=center;verticalAlign=middle;resizable=0;points=[];autosize=1;strokeColor=none;fillColor=none;labelBackgroundColor=none;" vertex="1" parent="YGWuQ-swnYf5FkJz1V4--10">
          <mxGeometry x="40" y="90" width="80" height="30" as="geometry" />
        </mxCell>
        <mxCell id="YGWuQ-swnYf5FkJz1V4--12" value="" style="strokeWidth=2;html=1;shape=mxgraph.flowchart.annotation_2;align=left;labelPosition=right;pointerEvents=1;labelBackgroundColor=none;" vertex="1" parent="YGWuQ-swnYf5FkJz1V4--3">
          <mxGeometry x="240" y="120" width="120" height="160" as="geometry" />
        </mxCell>
        <mxCell id="YGWuQ-swnYf5FkJz1V4--13" value="&lt;b&gt;&lt;font style=&quot;font-size: 14px;&quot;&gt;src/lib/notion/client.ts&lt;/font&gt;&lt;/b&gt;" style="text;html=1;align=center;verticalAlign=middle;resizable=0;points=[];autosize=1;strokeColor=none;fillColor=none;labelBackgroundColor=none;" vertex="1" parent="YGWuQ-swnYf5FkJz1V4--3">
          <mxGeometry x="200" y="85" width="170" height="30" as="geometry" />
        </mxCell>
        <mxCell id="YGWuQ-swnYf5FkJz1V4--21" value="&lt;div style=&quot;font-size: 14px;&quot;&gt;src/pages&lt;span style=&quot;background-color: initial;&quot;&gt;/feed.ts&lt;/span&gt;&lt;/div&gt;" style="text;html=1;align=center;verticalAlign=middle;resizable=0;points=[];autosize=1;strokeColor=none;fillColor=none;fontStyle=1;fontSize=14;" vertex="1" parent="YGWuQ-swnYf5FkJz1V4--3">
          <mxGeometry x="215" y="290" width="140" height="30" as="geometry" />
        </mxCell>
        <mxCell id="YGWuQ-swnYf5FkJz1V4--11" value="Notion api" style="swimlane;labelBackgroundColor=none;fontSize=16;" vertex="1" parent="1">
          <mxGeometry x="1000" y="400" width="119" height="100" as="geometry" />
        </mxCell>
      </root>
    </mxGraphModel>
  </diagram>
</mxfile>
